PathFileType	4	(X/Y/Z)	C:\Users\WrightLab\Desktop\Jo\P1.2Trial21.trc
DataRate	CameraRate	NumFrames	NumMarkers	Units	OrigDataRate	OrigDataStartFrame	OrigNumFrames
100.00	100.00	       21	19	mm	100.00	496	       660
Frame#	Time	Headset_Front			Headset_Back			Headset_Left			Headset_Right			Left_Shoulder			Right_Shoulder			Sternum			C7			Left Elbow			Right Elbow			Left Wrist			Right Wrist			Left ASIS			Right ASIS			S2			Left Knee			Right Knee			Left Ankle			Right Ankle			
		X1	Y1	Z1	X2	Y2	Z2	X3	Y3	Z3	X4	Y4	Z4	X5	Y5	Z5	X6	Y6	Z6	X7	Y7	Z7	X8	Y8	Z8	X9	Y9	Z9	X10	Y10	Z10	X11	Y11	Z11	X12	Y12	Z12	X13	Y13	Z13	X14	Y14	Z14	X15	Y15	Z15	X16	Y16	Z16	X17	Y17	Z17	X18	Y18	Z18	X19	Y19	Z19	

496	4.950	-267.29572	1508.46167	2185.06934	46.21608	1299.81824	2325.34863	-66.09733	1515.27295	2246.58887				108.24190	1047.36121	2459.81738				-170.80055	1222.04431	2230.12329										10.40552	902.96112	2631.50513	-221.94940	790.53894	1828.03003							87.69518	949.12750	2049.42725	37.46068	474.81262	2294.12500	-253.47717	512.45129	2200.57056	187.40257	148.47246	2205.96582	-285.69476	185.36801	2267.92847	
497	4.960	-273.79071	1508.00793	2186.88574	39.87601	1298.15271	2329.48462	-73.44003	1513.79004	2251.67432				98.97031	1045.76282	2464.51147				-177.07021	1220.88660	2234.09497										-2.38149	904.04108	2636.89673	-223.70410	787.80786	1834.33813							81.27636	947.64972	2055.46680	32.93536	473.44360	2297.07935	-259.28552	511.52890	2204.46826	187.01962	149.66031	2207.82617	-293.09918	185.88788	2270.99316	
498	4.970	-279.98834	1506.93677	2189.06885	33.27921	1297.06299	2333.66504	-80.09030	1512.56262	2255.58081				89.83627	1043.72351	2467.88403				-183.53543	1220.10803	2238.58667										-15.18065	904.76276	2641.71899	-225.57257	786.05988	1841.14978							74.22194	946.14093	2058.58740	27.77830	473.16052	2302.59717	-265.94751	510.50830	2208.15820	185.99443	150.33852	2208.05957	-299.37952	183.77715	2272.37231	
499	4.980	-286.52072	1506.57275	2191.30957	26.51122	1295.66931	2336.31519	-87.17725	1511.06335	2259.72070				80.38609	1042.04260	2472.08472	-249.49211	891.00946	2134.89966	-190.24063	1219.79443	2243.20337										-27.42680	905.36884	2645.87402	-228.15926	784.83099	1844.47046							67.07661	944.71924	2063.83740	23.20517	472.23801	2307.08276	-274.22006	509.60968	2212.60986	185.79913	150.62503	2207.80859	-303.67657	179.75827	2275.51880	
500	4.990				19.96913	1293.93994	2339.30835	-94.48759	1509.24719	2263.97461				71.56918	1040.03052	2474.95166	-254.61681	889.78284	2137.88013	-196.78809	1218.78516	2246.59204										-40.05232	906.10675	2650.22339	-230.91415	783.37439	1848.01172							59.48812	943.27509	2067.57031	18.38704	470.99643	2312.06421	-281.40982	507.82416	2216.20630	183.84332	151.30186	2207.72607	-305.42944	175.89810	2276.30859	
501	5.000				13.11743	1292.54102	2341.90405	-101.12579	1507.54614	2267.18799				62.15498	1037.45581	2476.47925	-262.41202	888.79517	2143.01196	-203.96294	1218.42017	2250.53735										-52.32555	906.67755	2653.66724	-234.54047	780.84894	1855.31042							51.83450	941.28113	2071.88477	13.82980	469.91052	2317.28882	-289.49689	504.75974	2218.98145	182.63362	153.54002	2209.36865				
502	5.010				6.81319	1291.58911	2344.73560	-108.40804	1506.18079	2271.11792				52.99412	1035.44202	2479.05811	-269.44250	887.72815	2147.87891	-211.00175	1217.77686	2253.75513										-64.40040	906.72858	2656.35742	-239.05055	778.38159	1861.11438							43.95321	939.02142	2076.19385	8.81823	470.54327	2324.15308	-296.87814	501.94839	2221.65918	181.63248	154.87814	2210.03589				
503	5.020				0.34058	1290.28662	2347.37573	-115.24557	1505.09021	2274.09155				44.07563	1032.46362	2479.82764	-277.51025	886.57837	2153.01270	-218.28011	1217.95178	2256.57813										-76.44290	906.43445	2658.82349	-244.35291	775.95490	1865.29700							36.01718	935.70258	2083.94238	4.28444	470.57086	2330.40381	-304.24066	498.67859	2224.11255	179.76404	156.78026	2210.61133				
504	5.030				-6.04001	1289.31702	2350.37695	-122.04432	1504.87061	2277.00879				34.89211	1030.44788	2481.64478	-284.42084	885.88214	2157.12695	-225.61752	1218.02551	2259.32935										-87.73367	905.89172	2660.25903	-250.34491	772.75378	1873.00049							27.73628	934.38251	2087.43872	-0.77419	470.60486	2337.22192	-312.02948	494.25247	2226.88623	178.31383	160.01375	2213.89111				
505	5.040				-12.49281	1288.84644	2352.67310	-129.13931	1505.39697	2280.02563				25.95819	1027.63623	2481.93945	-292.50601	885.80066	2161.79370	-233.22969	1218.45203	2262.04590										-99.23277	905.91547	2661.72363	-257.79721	771.79456	1875.12561							19.97555	932.61859	2092.47534	-7.25553	471.26813	2344.80884	-319.44943	490.91357	2232.35083	176.50903	164.27805	2217.19775				
506	5.050				-18.76455	1288.39355	2355.25464	-136.24306	1505.77820	2282.95581				17.48626	1026.14941	2482.83691	-300.02679	885.80103	2166.22534	-240.81738	1219.38623	2265.01904										-110.21214	904.92529	2662.50830	-265.65262	768.77667	1884.50024							11.40200	931.08087	2095.79785	-14.60365	472.17975	2352.00806	-325.14621	488.33145	2235.12573	174.52623	169.12041	2222.17554				
507	5.060				-25.52467	1288.29492	2357.93530	-143.39009	1506.26379	2285.81104				8.75461	1024.12610	2482.38550	-307.86005	886.18140	2170.36597	-248.23810	1220.72473	2266.98804										-120.90807	904.01178	2662.50439	-274.24310	767.29767	1886.92676							3.78518	930.41815	2102.73779	-22.78876	473.50854	2360.97046	-330.65332	488.39453	2238.39404	170.23317	174.77568	2227.40308				
508	5.070				-32.81961	1289.13220	2360.66211	-150.48454	1506.71484	2288.73608				0.15510	1022.41010	2482.69824	-315.55777	887.35223	2173.80444	-255.72874	1222.42944	2269.52222										-130.84554	903.12366	2661.69116	-283.98523	766.76038	1891.20532										-33.16355	475.22678	2369.17920	-334.29855	489.43335	2240.18481	166.17174	180.60474	2233.56616				
509	5.080				-40.16961	1289.61194	2363.93433	-157.45634	1506.88647	2291.28320				-8.41394	1021.50293	2481.38647	-323.01587	889.32642	2176.41357	-262.96432	1223.67627	2271.38037										-140.72096	901.39819	2660.90698	-293.73770	765.37823	1899.74719										-45.60008	477.64920	2377.55005	-339.45984	490.81876	2242.14185	160.63365	187.22382	2241.31982				
510	5.090				-47.95109	1290.55786	2367.23486	-164.41859	1506.93665	2293.92480				-16.84246	1019.79004	2480.19873	-331.06339	890.97162	2179.12524	-269.95667	1224.52734	2273.05518										-150.34695	900.20203	2659.56641	-304.06882	765.58264	1904.69434										-58.49881	479.94220	2388.51221	-344.98239	493.19861	2245.01196	153.32204	195.03487	2251.30444				
511	5.100				-56.53419	1291.99597	2371.60083	-171.06779	1507.45972	2295.94897				-25.79643	1019.64117	2480.21362	-337.56348	892.77570	2180.43311	-277.09283	1225.71094	2274.93384										-159.23112	898.30042	2657.68286	-314.54089	765.09680	1913.40161										-71.68414	481.77170	2402.45313	-350.49249	493.68469	2246.32910	144.95337	201.37701	2258.76465				
512	5.110				-64.24564	1292.89453	2374.94043	-177.85887	1507.43201	2298.45386				-34.82268	1018.58557	2478.86401	-344.23737	894.34174	2181.66284	-283.91742	1226.77637	2276.28540										-167.93123	895.32147	2655.95605	-325.14005	765.99792	1919.73792										-86.83692	483.13919	2418.10205	-356.13248	494.31076	2248.06226	135.90457	206.88190	2266.94067				
513	5.120				-72.20814	1293.90430	2378.75830	-184.93040	1508.22974	2301.15796				-44.18953	1017.55756	2478.05688	-351.91696	895.78308	2182.81934	-290.64029	1227.81250	2278.07080										-176.51184	892.39856	2653.56055	-335.58560	766.31409	1924.74487										-102.15439	484.81064	2431.95483	-361.53168	495.16483	2248.60327	123.60970	214.29245	2275.86328				
514	5.130				-79.94929	1294.54541	2382.43140	-191.13380	1508.25171	2302.75366				-53.79055	1016.49713	2478.23706	-358.98846	897.02722	2182.50024	-297.28067	1228.77332	2279.38232										-184.85374	888.56750	2651.58472	-346.33362	767.89954	1930.52441										-119.16154	486.05814	2445.88159	-366.55011	495.76215	2248.03955	112.96661	220.26970	2283.76904				
515	5.140				-86.96477	1294.63171	2385.43774	-197.68185	1508.93774	2304.99536				-62.94577	1016.14874	2478.52271	-366.27505	898.58948	2183.00342	-303.46350	1229.86475	2280.57495										-192.98737	885.12286	2648.91626	-357.14417	769.37201	1936.35889										-135.45607	487.22559	2457.31689	-370.62863	495.70084	2246.60742	104.42819	230.05827	2298.43237				
516	5.150				-94.36298	1294.79187	2389.53882	-204.30191	1509.56873	2307.20483				-72.75103	1014.93384	2479.31396	-374.15781	899.74835	2184.17188	-309.71732	1230.81189	2281.98218										-200.67160	880.76776	2646.04883	-367.90652	769.94275	1942.71240										-151.91805	490.19333	2467.40015	-373.76935	495.20114	2244.66992	93.71894	234.54565	2305.28564				
